<svg width="209" height="61" viewBox="0 0 209 61" fill="none" xmlns="http://www.w3.org/2000/svg">
<path d="M21.855 31.695C21.855 32.79 21.84 33.855 21.945 34.935C22.035 36.135 20.19 36.12 20.085 34.935C20.055 34.59 20.04 34.245 20.025 33.9C19.875 34.065 19.725 34.215 19.545 34.365C17.805 35.82 14.64 36.435 13.23 34.215C11.805 31.995 12.36 28.725 14.295 27.015C15.885 25.62 18.54 25.575 19.905 27.255C19.935 27.27 19.98 27.3 20.01 27.345C20.04 27.03 20.07 26.73 20.115 26.415C20.325 25.245 22.11 25.755 21.9 26.91C21.645 28.44 21.855 30.15 21.855 31.695ZM14.505 32.7C15.675 35.925 21.69 31.56 18.75 28.68C18.675 28.62 18.63 28.545 18.585 28.47C18.51 28.41 18.435 28.35 18.36 28.26C17.625 27.285 15.87 27.99 15.24 28.665C14.295 29.685 14.04 31.41 14.505 32.7ZM27.793 25.41C30.088 25.77 30.523 28.305 30.028 30.27C29.443 32.58 27.493 33.015 25.363 32.775C25.363 33.465 25.363 34.155 25.468 34.815C25.633 35.985 23.863 36.48 23.683 35.31C23.293 32.685 23.623 29.88 23.593 27.225C23.593 26.46 23.593 25.65 24.463 25.38C25.393 25.08 26.848 25.26 27.793 25.41ZM28.273 29.295C28.348 28.59 28.438 27.615 27.718 27.27C27.043 26.97 26.173 27.3 25.483 27.195C25.468 27.195 25.468 27.195 25.468 27.195C25.468 27.57 25.468 28.11 25.468 28.14C25.483 28.92 25.468 29.7 25.453 30.48C25.453 30.63 25.453 30.78 25.438 30.93C26.128 31.02 27.073 31.155 27.673 30.765C28.093 30.48 28.213 29.85 28.273 29.295ZM41.7039 30.6C41.7939 32.07 41.8539 33.525 41.8539 34.995C41.8539 36.18 40.0089 36.18 40.0089 34.995C40.0089 33.525 39.9339 32.07 39.8439 30.6C39.8289 30.285 39.7989 29.97 39.7689 29.64C39.6639 29.805 39.5739 29.955 39.4689 30.12C38.7489 31.305 38.1939 32.76 37.2939 33.825C36.8889 34.305 36.1539 34.08 35.8389 33.63C35.1339 32.595 34.5639 31.455 33.9339 30.375C33.7239 30.03 33.5439 29.685 33.3489 29.325C33.2589 31.185 33.1839 33.03 33.1839 34.89C33.1839 36.075 31.3389 36.075 31.3389 34.89C31.3389 32.01 31.4889 29.16 31.6539 26.295C31.7139 25.44 32.6139 25.14 33.2439 25.635C34.1589 26.355 34.7289 28.035 35.2839 29.025C35.7489 29.85 36.1989 30.675 36.6789 31.485C37.1889 30.63 37.6089 29.625 38.0889 28.83C38.6439 27.915 39.2889 27.015 39.7389 26.055C40.1139 25.23 41.5389 25.62 41.4639 26.52C41.3439 27.87 41.6139 29.265 41.7039 30.6ZM52.4116 31.695C52.4116 32.79 52.3966 33.855 52.5016 34.935C52.5916 36.135 50.7466 36.12 50.6416 34.935C50.6116 34.59 50.5966 34.245 50.5816 33.9C50.4316 34.065 50.2816 34.215 50.1016 34.365C48.3616 35.82 45.1966 36.435 43.7866 34.215C42.3616 31.995 42.9166 28.725 44.8516 27.015C46.4416 25.62 49.0966 25.575 50.4616 27.255C50.4916 27.27 50.5366 27.3 50.5666 27.345C50.5966 27.03 50.6266 26.73 50.6716 26.415C50.8816 25.245 52.6666 25.755 52.4566 26.91C52.2016 28.44 52.4116 30.15 52.4116 31.695ZM45.0616 32.7C46.2316 35.925 52.2466 31.56 49.3066 28.68C49.2316 28.62 49.1866 28.545 49.1416 28.47C49.0666 28.41 48.9916 28.35 48.9166 28.26C48.1816 27.285 46.4266 27.99 45.7966 28.665C44.8516 29.685 44.5966 31.41 45.0616 32.7ZM61.7246 26.985C61.5746 27.465 61.7546 28.215 61.7546 28.695C61.7546 29.34 61.7546 29.97 61.7546 30.6V34.965C61.7546 36.15 59.8946 36.15 59.8946 34.965V33.435C58.6646 33.42 57.3896 33.36 56.1446 33.48C56.1746 34.005 56.1896 34.545 56.1896 35.07C56.1896 36.255 54.3296 36.255 54.3296 35.07C54.3296 32.145 53.9846 29.235 53.9696 26.31C53.9546 25.125 55.7996 25.125 55.8146 26.31C55.8146 28.095 55.9646 29.88 56.0546 31.665C57.3446 31.545 58.6196 31.59 59.8946 31.59V30.105C59.8946 28.995 59.6246 27.555 59.9396 26.49C60.2696 25.35 62.0546 25.845 61.7246 26.985ZM71.0557 26.985C70.9057 27.465 71.0857 28.215 71.0857 28.695C71.0857 29.34 71.0857 29.97 71.0857 30.6V34.965C71.0857 36.15 69.2257 36.15 69.2257 34.965V33.435C67.9957 33.42 66.7207 33.36 65.4757 33.48C65.5057 34.005 65.5207 34.545 65.5207 35.07C65.5207 36.255 63.6607 36.255 63.6607 35.07C63.6607 32.145 63.3157 29.235 63.3007 26.31C63.2857 25.125 65.1307 25.125 65.1457 26.31C65.1457 28.095 65.2957 29.88 65.3857 31.665C66.6757 31.545 67.9507 31.59 69.2257 31.59V30.105C69.2257 28.995 68.9557 27.555 69.2707 26.49C69.6007 25.35 71.3857 25.845 71.0557 26.985ZM78.2718 30.855C79.0218 31.47 79.3068 32.595 79.2018 33.54C78.9168 36.195 75.7368 36 73.7868 36C73.2468 36 72.9468 35.61 72.9018 35.19C72.8868 35.115 72.8718 35.025 72.8718 34.92C72.8718 32.01 72.6168 29.085 72.7968 26.175C72.8568 24.99 74.7018 24.99 74.6418 26.175C74.5668 27.51 74.5668 28.845 74.6118 30.18C74.6868 30.165 74.7918 30.135 74.8968 30.135C76.0368 30.12 77.3418 30.075 78.2718 30.855ZM77.3268 33.495C77.5218 33.015 77.2668 32.325 76.8168 32.13C76.2318 31.89 75.5118 31.98 74.8968 31.98C74.8068 31.98 74.7318 31.98 74.6568 31.965C74.6868 32.7 74.7018 33.45 74.7168 34.2C75.7068 34.245 77.0118 34.23 77.3268 33.495ZM80.3118 25.935C80.4918 24.765 82.2768 25.26 82.0818 26.43C81.6618 28.95 81.9618 31.725 81.9618 34.29C81.9618 35.475 80.1168 35.475 80.1168 34.29C80.1168 31.545 79.8618 28.65 80.3118 25.935ZM91.4205 34.62C91.9905 35.655 90.4005 36.6 89.8155 35.55C89.6205 35.19 89.5005 34.8 89.4405 34.38C88.3755 35.355 86.9655 35.94 85.6605 35.7C83.9655 35.37 83.6955 33.825 83.5905 32.355C83.4405 30.42 83.5905 28.455 83.5905 26.52C83.5905 25.32 85.4355 25.32 85.4355 26.52C85.4355 27.75 85.4355 28.965 85.3755 30.18C85.3455 30.99 85.2555 32.115 85.4805 32.895C86.1705 35.19 89.2155 32.64 89.3655 31.23C89.3805 31.14 89.3955 31.08 89.4255 31.005V26.565C89.4255 25.38 91.2705 25.38 91.2705 26.565V31.065C91.2705 32.04 90.9255 33.735 91.4205 34.62ZM87.8055 25.08C86.6355 25.14 85.4205 24.78 85.3905 23.415C85.3755 22.53 86.7705 22.53 86.7855 23.415C86.8005 23.79 87.4755 23.715 87.8055 23.685C88.0155 23.67 88.1205 23.67 88.2255 23.475C88.2555 23.415 88.3005 23.055 88.2705 23.34C88.3155 22.965 88.5555 22.635 88.9605 22.65C89.3055 22.65 89.7105 22.965 89.6655 23.34C89.5305 24.39 88.8855 25.02 87.8055 25.08ZM105.366 30.885C105.381 32.205 105.411 33.645 105.246 34.965C105.111 36.135 103.251 36.135 103.401 34.965C103.566 33.705 103.476 32.385 103.491 31.125C103.491 30.465 103.461 29.79 103.446 29.13C103.446 28.68 103.566 27.81 103.461 27.225C102.381 27.195 101.241 27.225 100.176 27.345C100.056 29.88 99.9514 32.43 99.9514 34.965C99.9514 36.15 98.1064 36.15 98.1064 34.965C98.1064 32.16 98.2414 29.34 98.3614 26.535C98.3914 26.16 98.6314 25.71 99.0514 25.65C100.386 25.44 101.811 25.38 103.161 25.38C104.241 25.365 104.991 25.5 105.201 26.685C105.441 28.02 105.351 29.52 105.366 30.885ZM113.194 26.055C113.659 24.975 115.249 25.92 114.784 27C114.499 27.675 114.559 28.56 114.439 29.295C114.304 30.015 114.139 30.735 113.944 31.455C113.584 32.7 113.149 33.855 112.249 34.83C110.824 36.405 108.019 36.615 106.834 34.575C106.219 33.555 107.824 32.625 108.424 33.645C109.099 34.785 110.494 34.095 111.064 33.39C111.484 32.865 111.739 32.28 111.934 31.68C110.674 31.68 109.444 31.395 108.439 30.585C107.269 29.61 106.759 27.945 106.654 26.475C106.549 25.29 108.409 25.305 108.499 26.475C108.574 27.465 108.964 28.695 109.789 29.295C110.509 29.82 111.514 29.865 112.414 29.82C112.624 28.545 112.699 27.21 113.194 26.055ZM122.758 25.545C123.943 25.545 123.943 27.405 122.758 27.405C121.873 27.405 121.003 27.405 120.133 27.405C119.968 28.74 120.163 30.18 120.178 31.515C120.193 32.73 120.178 33.96 120.178 35.175C120.178 36.36 118.333 36.36 118.333 35.175C118.333 32.655 118.018 29.955 118.288 27.435C117.568 27.45 116.848 27.48 116.128 27.51C114.928 27.555 114.943 25.71 116.128 25.665C118.333 25.56 120.538 25.545 122.758 25.545ZM132.199 32.595C133.024 31.725 134.329 33.045 133.504 33.9C132.454 35.01 131.449 36.03 129.844 36C128.329 35.955 126.679 35.64 125.569 34.515C123.634 32.535 123.709 28.605 125.584 26.595C126.694 25.395 128.524 25.11 130.099 25.275C131.839 25.47 132.829 26.55 133.399 28.155C133.819 29.355 133.834 30.69 132.319 30.855C130.264 31.065 128.089 30.975 126.004 30.96C126.064 31.815 126.334 32.64 126.889 33.21C127.564 33.915 128.884 34.215 129.844 34.14C130.879 34.065 131.524 33.3 132.199 32.595ZM126.589 28.35C126.454 28.59 126.334 28.845 126.244 29.115C127.264 29.115 128.269 29.145 129.289 29.085C129.874 29.055 130.459 28.995 131.044 28.995C131.254 28.995 131.464 29.01 131.674 29.01C131.539 28.605 131.329 28.08 131.299 28.035C130.834 27.24 130.339 27.12 129.469 27.105C128.284 27.075 127.219 27.285 126.589 28.35ZM140.271 30.585C140.916 31.065 141.396 31.695 141.591 32.52C141.966 34.215 140.601 35.64 138.996 35.895C138.111 36.045 136.641 36.18 135.801 35.745C135.006 35.34 135.126 34.53 135.126 33.75C135.126 31.08 135.141 28.41 135.096 25.755C135.081 25.29 135.351 25.005 135.696 24.9C135.786 24.855 135.891 24.81 136.011 24.78C138.051 24.375 141.021 24.93 141.666 27.165C142.041 28.425 141.531 29.58 140.541 30.39C140.451 30.45 140.361 30.525 140.271 30.585ZM139.716 33.39C140.196 32.085 138.126 31.47 136.986 31.35C136.986 32.235 136.986 33.12 136.986 34.005C136.986 34.02 136.971 34.035 136.971 34.065C137.286 34.095 137.691 34.14 137.781 34.14C138.426 34.14 139.461 34.125 139.716 33.39ZM136.971 29.475C138.231 29.43 140.541 29.175 139.821 27.51C139.491 26.76 137.946 26.475 136.956 26.52C136.971 27.495 136.971 28.485 136.971 29.475ZM151.566 29.7C151.716 32.295 150.561 35.055 147.786 35.7C144.726 36.405 142.866 33.525 142.791 30.81C142.716 28.41 144.366 25.395 147.051 25.395C147.276 25.395 147.456 25.455 147.591 25.56C149.721 25.89 151.431 27.36 151.566 29.7ZM148.086 33.585C149.526 32.76 149.916 31.125 149.676 29.595C149.436 28.035 148.221 27.345 146.736 27.345C146.661 27.345 146.586 27.345 146.526 27.33C145.161 27.75 144.531 29.805 144.651 31.035C144.816 32.835 146.106 34.71 148.086 33.585ZM163.349 34.17C164.534 34.155 164.534 36 163.349 36.015C161.744 36.03 160.169 35.865 158.564 35.835C156.704 35.79 154.844 35.895 152.984 35.865C151.799 35.865 151.799 34.005 152.984 34.02C153.419 34.035 153.839 34.02 154.274 34.02C154.694 31.86 155.279 29.715 155.909 27.6C156.119 26.88 156.254 25.92 156.989 25.53C157.739 25.11 158.954 25.305 159.779 25.35C161.714 25.455 161.894 26.175 162.059 28.035C162.239 30.075 162.314 32.1 162.329 34.155C162.659 34.155 163.004 34.17 163.349 34.17ZM158.564 33.99C159.209 34.005 159.839 34.035 160.469 34.065C160.469 32.58 160.454 31.095 160.334 29.61C160.274 28.875 160.259 28.14 160.154 27.42C160.139 27.36 160.124 27.3 160.124 27.255C159.839 27.24 159.449 27.24 159.374 27.225C159.104 27.21 158.414 27.045 158.159 27.165C157.904 27.285 157.889 27.465 157.769 27.825C157.589 28.455 157.409 29.085 157.244 29.73C156.854 31.14 156.464 32.565 156.164 33.99C156.959 33.975 157.769 33.975 158.564 33.99ZM172.924 34.53C173.494 35.565 171.904 36.495 171.319 35.46C171.124 35.1 171.004 34.695 170.944 34.29C169.879 35.265 168.469 35.85 167.164 35.61C165.469 35.28 165.199 33.735 165.094 32.265C164.944 30.33 165.094 28.365 165.094 26.43C165.094 25.23 166.939 25.23 166.939 26.43C166.939 27.66 166.939 28.875 166.879 30.09C166.849 30.9 166.759 32.025 166.984 32.805C167.674 35.1 170.719 32.55 170.869 31.14C170.884 31.05 170.899 30.975 170.929 30.915V26.475C170.929 25.29 172.774 25.29 172.774 26.475V30.975C172.774 31.95 172.429 33.645 172.924 34.53ZM181.264 25.545C182.449 25.545 182.449 27.405 181.264 27.405C180.379 27.405 179.509 27.405 178.639 27.405C178.474 28.74 178.669 30.18 178.684 31.515C178.699 32.73 178.684 33.96 178.684 35.175C178.684 36.36 176.839 36.36 176.839 35.175C176.839 32.655 176.524 29.955 176.794 27.435C176.074 27.45 175.354 27.48 174.634 27.51C173.434 27.555 173.449 25.71 174.634 25.665C176.839 25.56 179.044 25.545 181.264 25.545ZM190.705 32.595C191.53 31.725 192.835 33.045 192.01 33.9C190.96 35.01 189.955 36.03 188.35 36C186.835 35.955 185.185 35.64 184.075 34.515C182.14 32.535 182.215 28.605 184.09 26.595C185.2 25.395 187.03 25.11 188.605 25.275C190.345 25.47 191.335 26.55 191.905 28.155C192.325 29.355 192.34 30.69 190.825 30.855C188.77 31.065 186.595 30.975 184.51 30.96C184.57 31.815 184.84 32.64 185.395 33.21C186.07 33.915 187.39 34.215 188.35 34.14C189.385 34.065 190.03 33.3 190.705 32.595ZM185.095 28.35C184.96 28.59 184.84 28.845 184.75 29.115C185.77 29.115 186.775 29.145 187.795 29.085C188.38 29.055 188.965 28.995 189.55 28.995C189.76 28.995 189.97 29.01 190.18 29.01C190.045 28.605 189.835 28.08 189.805 28.035C189.34 27.24 188.845 27.12 187.975 27.105C186.79 27.075 185.725 27.285 185.095 28.35ZM201.312 34.425C201.792 35.505 200.202 36.435 199.722 35.355C199.197 34.2 198.972 32.835 198.552 31.635C198.147 30.405 197.847 29.13 197.427 27.9C196.752 28.89 196.362 30.345 196.017 31.245C195.507 32.52 195.087 33.855 194.757 35.19C194.472 36.345 192.702 35.85 192.987 34.695C193.437 32.85 194.082 31.05 194.817 29.31C195.417 27.885 195.912 26.295 197.307 25.485C197.697 25.245 198.372 25.35 198.582 25.815C199.182 27.21 199.557 28.725 200.022 30.18C200.292 31.035 200.622 31.875 200.892 32.745C201.042 33.27 201.087 33.915 201.312 34.425ZM208.614 30.915C208.809 32.655 208.569 34.965 206.694 35.73C205.944 36.045 204.339 36.285 203.529 36.105C202.464 35.88 202.569 34.95 202.569 34.08C202.569 31.53 202.509 29.01 202.359 26.475C202.284 25.29 204.129 25.29 204.204 26.475C204.234 26.94 204.249 27.39 204.264 27.84C206.379 27.795 208.329 28.485 208.614 30.915ZM206.754 32.745C206.889 32.055 206.934 30.825 206.439 30.24C205.914 29.61 205.104 29.625 204.339 29.685C204.354 29.985 204.369 30.3 204.369 30.615C204.399 31.335 204.414 32.055 204.414 32.775C204.414 33.195 204.324 33.78 204.339 34.29C204.879 34.26 205.629 34.125 205.899 34.02C206.439 33.78 206.664 33.315 206.754 32.745Z" fill="black"/>
<mask id="mask0_108_258" style="mask-type:alpha" maskUnits="userSpaceOnUse" x="1" y="15" width="46" height="46">
<path d="M24 46.625C19.2365 46.625 15.375 42.7635 15.375 38C15.375 33.2365 19.2365 29.375 24 29.375C28.7635 29.375 32.625 33.2365 32.625 38C32.625 42.7635 28.7635 46.625 24 46.625ZM24 49.5C30.3513 49.5 35.5 44.3513 35.5 38C35.5 31.6487 30.3513 26.5 24 26.5C17.6487 26.5 12.5 31.6487 12.5 38C12.5 44.3513 17.6487 49.5 24 49.5Z" fill="black"/>
<path d="M24 15C24.7939 15 25.4375 15.6436 25.4375 16.4375V22.1875C25.4375 22.9814 24.7939 23.625 24 23.625C23.2061 23.625 22.5625 22.9814 22.5625 22.1875V16.4375C22.5625 15.6436 23.2061 15 24 15Z" fill="black"/>
<path d="M24 52.375C24.7939 52.375 25.4375 53.0186 25.4375 53.8125V59.5625C25.4375 60.3564 24.7939 61 24 61C23.2061 61 22.5625 60.3564 22.5625 59.5625V53.8125C22.5625 53.0186 23.2061 52.375 24 52.375Z" fill="black"/>
<path d="M47 38C47 38.7939 46.3564 39.4375 45.5625 39.4375H39.8125C39.0186 39.4375 38.375 38.7939 38.375 38C38.375 37.2061 39.0186 36.5625 39.8125 36.5625H45.5625C46.3564 36.5625 47 37.2061 47 38Z" fill="black"/>
<path d="M9.625 38C9.625 38.7939 8.98141 39.4375 8.1875 39.4375H2.4375C1.64359 39.4375 1 38.7939 1 38C1 37.2061 1.64359 36.5625 2.4375 36.5625H8.1875C8.98141 36.5625 9.625 37.2061 9.625 38Z" fill="black"/>
<path d="M40.2635 21.7366C40.8248 22.298 40.8248 23.2082 40.2635 23.7696L36.1976 27.8354C35.6362 28.3968 34.726 28.3968 34.1647 27.8354C33.6033 27.2741 33.6033 26.3639 34.1647 25.8025L38.2305 21.7366C38.7919 21.1753 39.7021 21.1753 40.2635 21.7366Z" fill="black"/>
<path d="M13.8353 48.1647C14.3967 48.7261 14.3967 49.6363 13.8353 50.1977L9.76947 54.2635C9.20809 54.8249 8.29792 54.8249 7.73654 54.2635C7.17516 53.7022 7.17516 52.792 7.73654 52.2306L11.8024 48.1647C12.3638 47.6034 13.274 47.6034 13.8353 48.1647Z" fill="black"/>
<path d="M40.2635 54.2636C39.7021 54.825 38.7919 54.825 38.2305 54.2636L34.1647 50.1977C33.6033 49.6363 33.6033 48.7262 34.1647 48.1648C34.726 47.6034 35.6362 47.6034 36.1976 48.1648L40.2635 52.2307C40.8248 52.792 40.8248 53.7022 40.2635 54.2636Z" fill="black"/>
<path d="M13.8353 27.8355C13.274 28.3968 12.3638 28.3968 11.8024 27.8355L7.73654 23.7696C7.17516 23.2082 7.17516 22.298 7.73654 21.7367C8.29792 21.1753 9.2081 21.1753 9.76947 21.7367L13.8353 25.8025C14.3967 26.3639 14.3967 27.2741 13.8353 27.8355Z" fill="black"/>
</mask>
<g mask="url(#mask0_108_258)">
<rect x="1" y="37" width="46" height="24" fill="#006DD1"/>
</g>
<mask id="mask1_108_258" style="mask-type:alpha" maskUnits="userSpaceOnUse" x="163" y="0" width="46" height="46">
<path d="M186 31.625C181.237 31.625 177.375 27.7635 177.375 23C177.375 18.2365 181.237 14.375 186 14.375C190.763 14.375 194.625 18.2365 194.625 23C194.625 27.7635 190.763 31.625 186 31.625ZM186 34.5C192.351 34.5 197.5 29.3513 197.5 23C197.5 16.6487 192.351 11.5 186 11.5C179.649 11.5 174.5 16.6487 174.5 23C174.5 29.3513 179.649 34.5 186 34.5Z" fill="black"/>
<path d="M186 0C186.794 0 187.438 0.643591 187.438 1.4375V7.1875C187.438 7.98141 186.794 8.625 186 8.625C185.206 8.625 184.562 7.98141 184.562 7.1875V1.4375C184.562 0.643591 185.206 0 186 0Z" fill="black"/>
<path d="M186 37.375C186.794 37.375 187.438 38.0186 187.438 38.8125V44.5625C187.438 45.3564 186.794 46 186 46C185.206 46 184.562 45.3564 184.562 44.5625V38.8125C184.562 38.0186 185.206 37.375 186 37.375Z" fill="black"/>
<path d="M209 23C209 23.7939 208.356 24.4375 207.562 24.4375H201.812C201.019 24.4375 200.375 23.7939 200.375 23C200.375 22.2061 201.019 21.5625 201.812 21.5625H207.562C208.356 21.5625 209 22.2061 209 23Z" fill="black"/>
<path d="M171.625 23C171.625 23.7939 170.981 24.4375 170.188 24.4375H164.437C163.644 24.4375 163 23.7939 163 23C163 22.2061 163.644 21.5625 164.438 21.5625H170.188C170.981 21.5625 171.625 22.2061 171.625 23Z" fill="black"/>
<path d="M202.263 6.73663C202.825 7.29801 202.825 8.20819 202.263 8.76957L198.198 12.8354C197.636 13.3968 196.726 13.3968 196.165 12.8354C195.603 12.2741 195.603 11.3639 196.165 10.8025L200.231 6.73663C200.792 6.17526 201.702 6.17526 202.263 6.73663Z" fill="black"/>
<path d="M175.835 33.1647C176.397 33.7261 176.397 34.6363 175.835 35.1977L171.769 39.2635C171.208 39.8249 170.298 39.8249 169.737 39.2635C169.175 38.7022 169.175 37.792 169.737 37.2306L173.802 33.1647C174.364 32.6034 175.274 32.6034 175.835 33.1647Z" fill="black"/>
<path d="M202.263 39.2636C201.702 39.825 200.792 39.825 200.231 39.2636L196.165 35.1977C195.603 34.6363 195.603 33.7262 196.165 33.1648C196.726 32.6034 197.636 32.6034 198.198 33.1648L202.263 37.2307C202.825 37.792 202.825 38.7022 202.263 39.2636Z" fill="black"/>
<path d="M175.835 12.8355C175.274 13.3968 174.364 13.3968 173.802 12.8355L169.737 8.7696C169.175 8.20822 169.175 7.29805 169.737 6.73667C170.298 6.17529 171.208 6.17529 171.769 6.73667L175.835 10.8025C176.397 11.3639 176.397 12.2741 175.835 12.8355Z" fill="black"/>
</mask>
<g mask="url(#mask1_108_258)">
<rect x="163" width="46" height="24" fill="#006DD1"/>
</g>
<path d="M10.54 33.26C12.02 33.82 11.38 36.2 9.88 35.64C8.46 35.08 7.12 34.06 5.84 33.24C5.2 32.82 4.34 32.42 3.58 31.92C3.6 32.84 3.6 33.74 3.6 34.66C3.6 36.24 1.12 36.24 1.12 34.66C1.12 30.8 1.06 26.94 1.2 23.1C1.26 21.5 3.72 21.5 3.66 23.1C3.6 24.62 3.58 26.16 3.58 27.7C4.12 27.12 4.7 26.56 5.18 25.96C6.18 24.72 7.34 23.56 8.48 22.44C9.62 21.32 11.36 23.06 10.24 24.18C9.1 25.3 7.98 26.42 6.96 27.64C6.34 28.4 5.54 29.12 4.9 29.9C5.62 30.4 6.8 30.92 7.34 31.28C8.32 31.9 9.46 32.84 10.54 33.26Z" fill="black"/>
</svg>
