<svg width="20" height="20" viewBox="0 0 20 20" fill="none" xmlns="http://www.w3.org/2000/svg">
<path d="M10 18C8.41775 18 6.87104 17.5308 5.55544 16.6518C4.23985 15.7727 3.21447 14.5233 2.60897 13.0615C2.00347 11.5997 1.84504 9.99113 2.15372 8.43928C2.4624 6.88743 3.22433 5.46197 4.34315 4.34315C5.46197 3.22433 6.88743 2.4624 8.43928 2.15372C9.99113 1.84504 11.5997 2.00347 13.0615 2.60897C14.5233 3.21447 15.7727 4.23985 16.6518 5.55544C17.5308 6.87104 18 8.41775 18 10C18 12.1217 17.1571 14.1566 15.6569 15.6569C14.1566 17.1571 12.1217 18 10 18ZM10 3.33334C8.68146 3.33334 7.39253 3.72433 6.2962 4.45687C5.19987 5.18942 4.34539 6.23061 3.84081 7.44878C3.33622 8.66695 3.2042 10.0074 3.46144 11.3006C3.71867 12.5938 4.35361 13.7817 5.28596 14.714C6.21831 15.6464 7.4062 16.2813 8.6994 16.5386C9.99261 16.7958 11.3331 16.6638 12.5512 16.1592C13.7694 15.6546 14.8106 14.8001 15.5431 13.7038C16.2757 12.6075 16.6667 11.3185 16.6667 10C16.6667 8.23189 15.9643 6.5362 14.714 5.28596C13.4638 4.03572 11.7681 3.33334 10 3.33334Z" fill="#006DD1"/>
<path d="M13.3333 13.6667C13.1681 13.6662 13.0089 13.6045 12.8867 13.4933L9.55333 10.4933C9.48427 10.431 9.42901 10.3549 9.39113 10.2699C9.35324 10.185 9.33355 10.093 9.33333 10V6.66667C9.33333 6.48986 9.40357 6.32029 9.52859 6.19526C9.65361 6.07024 9.82318 6 9.99999 6C10.1768 6 10.3464 6.07024 10.4714 6.19526C10.5964 6.32029 10.6667 6.48986 10.6667 6.66667V9.7L13.78 12.5C13.8819 12.5899 13.954 12.7088 13.9864 12.8408C14.0189 12.9727 14.0103 13.1115 13.9617 13.2384C13.9131 13.3653 13.8268 13.4744 13.7145 13.5509C13.6022 13.6274 13.4692 13.6678 13.3333 13.6667Z" fill="#006DD1"/>
</svg>
